<svg viewBox="0 0 394.98 173.65" xmlns="http://www.w3.org/2000/svg" xmlns:xlink="http://www.w3.org/1999/xlink"><linearGradient id="a" gradientUnits="userSpaceOnUse" x1="263.38" x2="343.94" y1="63.03" y2="109.54"><stop offset="0" stop-color="#fff"/><stop offset=".02" stop-color="#fffcd9"/><stop offset=".04" stop-color="#fff9a8"/><stop offset=".07" stop-color="#fff77e"/><stop offset=".1" stop-color="#fff55b"/><stop offset=".13" stop-color="#fff341"/><stop offset=".15" stop-color="#fff22e"/><stop offset=".18" stop-color="#fff222"/><stop offset=".21" stop-color="#fff21f"/><stop offset=".5" stop-color="#f6d127"/><stop offset=".82" stop-color="#eeb12f"/><stop offset="1" stop-color="#eca633"/></linearGradient><linearGradient id="b" gradientUnits="userSpaceOnUse" x1="2.5" x2="244.39" y1="83.16" y2="83.16"><stop offset="0" stop-color="#fff"/><stop offset=".11" stop-color="#b8c1d0"/><stop offset=".23" stop-color="#7285a2"/><stop offset=".28" stop-color="#576e91"/><stop offset=".35" stop-color="#44668a"/><stop offset=".47" stop-color="#275a81"/><stop offset=".57" stop-color="#15527b"/><stop offset=".65" stop-color="#0f5079"/><stop offset=".74" stop-color="#10426c"/><stop offset=".87" stop-color="#113662"/><stop offset="1" stop-color="#12335f"/></linearGradient><g stroke="#231815" stroke-miterlimit="10"><path d="m344.4 48.97c.43-1.74 3.11-11.96 11.4-14.86.94-.33 5.94-2.08 8.56.38 3.09 2.9.51 9.46.15 10.35-2.99 7.33-10.91 9.92-12.86 10.49-2.41-2.12-4.83-4.24-7.24-6.36z" fill="#231815" stroke-width="3"/><path d="m339.02 60.76c-1.03-1.61-.48-3.43-.25-4.16.73-2.4 2.69-3.6 3.27-3.93 1.01.96 2.05 1.94 3.14 2.92 1.07.97 2.13 1.9 3.18 2.8-.39.76-1.24 2.13-2.85 3.11-.88.53-2.4 1.45-4.17.96-.24-.07-1.52-.45-2.32-1.69z" fill="#231815" stroke-width="3"/><path d="m368.76 56.74c1.38-1.14 9.63-7.74 18.02-5.11.95.3 6.01 1.88 6.64 5.41.74 4.17-5.24 7.89-6.06 8.39-6.78 4.09-14.68 1.43-16.58.74-.67-3.14-1.34-6.28-2.01-9.42z" fill="#231815" stroke-width="3"/><path d="m357.35 62.86c.09-1.91 1.59-3.07 2.2-3.54 1.98-1.53 4.27-1.38 4.94-1.32.27 1.37.56 2.77.88 4.19.32 1.41.64 2.78.98 4.12-.76.4-2.24 1.02-4.13.89-1.02-.07-2.8-.2-3.95-1.62-.15-.19-.98-1.24-.91-2.72z" fill="#231815" stroke-width="3"/><path d="m47.48 30.4c5.05 10.08 11.97 27.04 13.77 49.12 2.06 25.28-3.56 45.37-7.57 56.47" fill="none" stroke-linecap="round" stroke-width="10"/><path d="m84.43 27.65c1.86.62 5.56 2.14 8.72 5.74 1.91 2.17 2.97 4.36 3.57 5.92" fill="none" stroke-linecap="round" stroke-width="10"/><path d="m83.52 62.54c-.62 2.21-1.5 5.63-2.3 9.87-1.26 6.74-2.79 14.88-.69 15.84 2.23 1.01 5.12-7.63 12.99-9.5 5.41-1.29 12.2.84 15.7 5.6 5.75 7.84-.35 18.84-1.61 21.12-4.88 8.81-13.31 12.13-16.07 13.08" fill="none" stroke-linecap="round" stroke-width="10"/><path d="m143.62 5c7.75 11.86 11.23 22.56 12.92 29.56 1.69 6.98 3.42 13.76 1.65 22.26-2.19 10.54-6.68 18.74-13.24 21.46-5.7 2.37-14.73.45-18.58-6.41-2.7-4.83-2.34-11.2 1.12-15.69 4.55-5.91 12.65-6.22 17.82-4.26 7.17 2.72 9.68 10.17 11.4 15.29 4.08 12.11.59 22.98-.94 27.53-3.92 11.69-11.1 18.52-12.74 20.04-8.55 7.89-17.8 10.42-21.95 11.3" fill="none" stroke-linecap="round" stroke-width="10"/><path d="m200.12 15.94c-5.53 12.74-11.71 30.48-14.92 52.33-3.11 21.2-2.43 39.47-.92 53.02" fill="none" stroke-linecap="round" stroke-width="10"/><path d="m201.27 86.18c3.69-.52 8.2-.83 13.31-.46 3.04.22 5.81.64 8.26 1.15" fill="none" stroke-linecap="round" stroke-width="10"/><path d="m199.66 109.59c1.21 1.41 3.46 3.63 6.89 4.82 3.78 1.32 7.04.71 11.71-.23 2.96-.59 7.26-1.74 12.17-4.13" fill="none" stroke-linecap="round" stroke-width="10"/></g><text fill="#231815" font-family="STYuanti-TC-Regular, 'Yuanti TC'" font-size="27.17" transform="matrix(1.07 0 0 1 126.58 164.64)"><tspan x="0" y="0">MIRASUTA</tspan></text><path d="m297.6 61.68c.44-.35 1.08-.85 1.86-1.44 5.41-4.08 10.32-7 13.91-8.95 2.51-1.36 5.74-2.99 9.6-4.62 1.76-.75 3.27-1.33 4.42-1.76.91 4.85 1.78 9.8 2.61 14.84.72 4.37 1.39 8.69 2.02 12.94 3.64 1.93 7.4 4.05 11.26 6.38 4.76 2.88 9.19 5.78 13.27 8.64-3.18 3.19-7.19 6.76-12.14 10.26-4.72 3.34-9.22 5.86-13.14 7.76-.41 5.06-1.08 10.55-2.13 16.4-.87 4.88-1.9 9.44-3 13.64-4.27-2.47-9.32-5.88-14.52-10.51-4.55-4.06-8.13-8.1-10.89-11.64-4.84 1.79-10.36 3.54-16.52 5.01-5.45 1.3-10.55 2.17-15.18 2.75-.05-4.52.27-10.16 1.54-16.51 1.34-6.74 3.36-12.34 5.26-16.65-2.02-3.83-4.05-8-6.01-12.52-2.17-5-3.99-9.78-5.51-14.27 5.51-.55 11.67-.88 18.4-.75 5.36.1 10.34.47 14.89 1z" fill="none" stroke="#231815" stroke-linecap="round" stroke-linejoin="round" stroke-width="5"/><path d="m297.6 61.68c.44-.35 1.08-.85 1.86-1.44 5.41-4.08 10.32-7 13.91-8.95 2.51-1.36 5.74-2.99 9.6-4.62 1.76-.75 3.27-1.33 4.42-1.76.91 4.85 1.78 9.8 2.61 14.84.72 4.37 1.39 8.69 2.02 12.94 3.64 1.93 7.4 4.05 11.26 6.38 4.76 2.88 9.19 5.78 13.27 8.64-3.18 3.19-7.19 6.76-12.14 10.26-4.72 3.34-9.22 5.86-13.14 7.76-.41 5.06-1.08 10.55-2.13 16.4-.87 4.88-1.9 9.44-3 13.64-4.27-2.47-9.32-5.88-14.52-10.51-4.55-4.06-8.13-8.1-10.89-11.64-4.84 1.79-10.36 3.54-16.52 5.01-5.45 1.3-10.55 2.17-15.18 2.75-.05-4.52.27-10.16 1.54-16.51 1.34-6.74 3.36-12.34 5.26-16.65-2.02-3.83-4.05-8-6.01-12.52-2.17-5-3.99-9.78-5.51-14.27 5.51-.55 11.67-.88 18.4-.75 5.36.1 10.34.47 14.89 1z" fill="url(#a)"/><path d="m5.7 75.16c-.23-.91-3.02-12.8 4.36-19.74.81-.76 5.07-4.77 10.1-3.9 3.51.6 6.17 3.36 9.12 8.51 7.3 12.74 8.18 25.85 8.32 28.45.72 12.71 2.22 39.36-9.41 43.84-4.3 1.65-9.5-.06-12.55-2.78-9.17-8.18-2.05-28.33-.81-31.67 7.77-20.91 26.61-31.66 40.68-39.69 15.93-9.09 29.32-12.79 42-16.3 27.42-7.58 49.42-8.38 58.3-8.49 10.2-.13 24.95-.22 43.84 3.9 18.09 3.95 32.4 10.11 42.23 15.15" fill="none" stroke="#231815" stroke-linecap="round" stroke-miterlimit="10" stroke-width="10"/><path d="m5.7 75.16c-.23-.91-3.02-12.8 4.36-19.74.81-.76 5.07-4.77 10.1-3.9 3.51.6 6.17 3.36 9.12 8.51 7.3 12.74 8.18 25.85 8.32 28.45.72 12.71 2.22 39.36-9.41 43.84-4.3 1.65-9.5-.06-12.55-2.78-9.17-8.18-2.05-28.33-.81-31.67 7.77-20.91 26.61-31.66 40.68-39.69 15.93-9.09 29.32-12.79 42-16.3 27.42-7.58 49.42-8.38 58.3-8.49 10.2-.13 24.95-.22 43.84 3.9 18.09 3.95 32.4 10.11 42.23 15.15" fill="none" stroke="url(#b)" stroke-linecap="round" stroke-miterlimit="10" stroke-width="5"/><path d="m237.63 14.39c1.36 12.53 2.73 25.05 4.09 37.58-9.89 5.84-19.78 11.67-29.66 17.51 13.73.72 27.63 1.56 41.67 2.5 9.92.67 19.76 1.39 29.51 2.15-8.03-10.13-16.1-20.5-24.2-31.12-7.33-9.61-14.46-19.15-21.41-28.61z" fill="none" stroke="#231815" stroke-linejoin="round" stroke-width="10"/><path d="m237.63 14.39c1.36 12.53 2.73 25.05 4.09 37.58-9.89 5.84-19.78 11.67-29.66 17.51 13.73.72 27.63 1.56 41.67 2.5 9.92.67 19.76 1.39 29.51 2.15-8.03-10.13-16.1-20.5-24.2-31.12-7.33-9.61-14.46-19.15-21.41-28.61z" fill="#12335f"/><path d="m237.63 14.39c1.36 12.53 2.73 25.05 4.09 37.58-9.89 5.84-19.78 11.67-29.66 17.51 13.73.72 27.63 1.56 41.67 2.5 9.92.67 19.76 1.39 29.51 2.15-8.03-10.13-16.1-20.5-24.2-31.12-7.33-9.61-14.46-19.15-21.41-28.61z" fill="none" stroke="#12335f" stroke-linecap="round" stroke-linejoin="round" stroke-width="5"/><path d="m234.58 48.91c1.59.7 3.19 1.39 4.78 2.09" fill="#12335f" stroke="#12335f" stroke-linecap="round" stroke-linejoin="round" stroke-width="5"/></svg>